<svg xmlns="http://www.w3.org/2000/svg" version="1.1" width="512px" height="512px" style="shape-rendering:geometricPrecision; text-rendering:geometricPrecision; image-rendering:optimizeQuality; fill-rule:evenodd; clip-rule:evenodd" xmlns:xlink="http://www.w3.org/1999/xlink">
<g><path style="opacity:0.994" fill="#323232" d="M 135.5,-0.5 C 215.5,-0.5 295.5,-0.5 375.5,-0.5C 441.111,10.4035 484.611,47.4035 506,110.5C 508.049,118.925 509.882,127.259 511.5,135.5C 511.5,215.5 511.5,295.5 511.5,375.5C 500.596,441.111 463.596,484.611 400.5,506C 392.075,508.049 383.741,509.882 375.5,511.5C 295.5,511.5 215.5,511.5 135.5,511.5C 69.8894,500.596 26.3894,463.596 5,400.5C 2.95089,392.075 1.11755,383.741 -0.5,375.5C -0.5,295.5 -0.5,215.5 -0.5,135.5C 10.4035,69.8894 47.4035,26.3894 110.5,5C 118.925,2.95089 127.259,1.11755 135.5,-0.5 Z M 71.5,129.5 C 80.645,130.535 89.645,132.369 98.5,135C 133.837,134.848 169.171,134.515 204.5,134C 209.704,136.207 213.204,140.04 215,145.5C 216.713,153.734 218.546,161.901 220.5,170C 219.281,175.539 215.781,178.372 210,178.5C 201.555,177.137 193.055,176.304 184.5,176C 161.816,175.232 139.15,175.398 116.5,176.5C 116.5,196.167 116.5,215.833 116.5,235.5C 141.5,234.949 166.5,234.782 191.5,235C 195.598,236.1 198.431,238.6 200,242.5C 202.717,251.533 204.883,260.7 206.5,270C 205.901,276.646 202.234,279.48 195.5,278.5C 169.199,276.742 142.866,276.075 116.5,276.5C 116.201,307.347 116.534,338.18 117.5,369C 117.99,375.166 115.323,379.166 109.5,381C 98.8333,381.667 88.1667,381.667 77.5,381C 73.8879,380.111 71.3879,377.945 70,374.5C 70.4361,316.509 70.1028,258.509 69,200.5C 68.638,181.685 66.8047,163.018 63.5,144.5C 63.3536,137.782 66.0203,132.782 71.5,129.5 Z M 260.5,130.5 C 274.726,131.141 288.393,134.141 301.5,139.5C 302.766,141.71 304.266,143.71 306,145.5C 336.646,128.107 367.146,128.274 397.5,146C 427.009,170.206 436.175,200.706 425,237.5C 416.573,261.594 400.073,277.094 375.5,284C 386.271,301.114 398.938,316.781 413.5,331C 423.334,338.112 434.334,341.945 446.5,342.5C 441.228,356.857 432.228,368.357 419.5,377C 403.002,385.163 388.836,382.329 377,368.5C 372.943,363.442 369.276,358.108 366,352.5C 354.323,331.147 343.156,309.48 332.5,287.5C 323.428,286.024 314.594,283.69 306,280.5C 305.357,311.554 305.357,342.554 306,373.5C 304.73,377.77 301.896,380.27 297.5,381C 287.167,381.667 276.833,381.667 266.5,381C 260.645,378.464 257.978,373.964 258.5,367.5C 259.727,311.836 259.561,256.169 258,200.5C 257.256,182.222 255.422,164.056 252.5,146C 252.163,139.171 254.83,134.004 260.5,130.5 Z"/></g>
<g><path style="opacity:0.976" fill="#333333" d="M 334.5,170.5 C 357.289,167.305 373.456,175.972 383,196.5C 388.142,214.387 383.975,229.553 370.5,242C 365.058,245.704 359.058,248.037 352.5,249C 335.212,251.97 319.712,248.136 306,237.5C 305.333,219.833 305.333,202.167 306,184.5C 314.191,177.054 323.691,172.388 334.5,170.5 Z"/></g>
</svg>
